<?xml version="1.0" standalone="no"?>
<!DOCTYPE svg PUBLIC "-//W3C//DTD SVG 20010904//EN"
 "http://www.w3.org/TR/2001/REC-SVG-20010904/DTD/svg10.dtd">
<svg version="1.0" xmlns="http://www.w3.org/2000/svg"
 width="256.000000pt" height="256.000000pt" viewBox="0 0 256.000000 256.000000"
 preserveAspectRatio="xMidYMid meet">
<metadata>
Created by potrace 1.11, written by Peter Selinger 2001-2013
</metadata>
<g transform="translate(0.000000,256.000000) scale(0.100000,-0.100000)"
fill="#000000" stroke="none">
<path d="M1360 1993 c0 -5 -294 -8 -653 -8 l-652 0 -3 -177 -2 -178 205 0 205
0 0 -119 c0 -69 -4 -122 -10 -126 -13 -8 -13 -162 0 -170 6 -4 10 -118 10
-311 l0 -304 240 0 240 0 0 280 0 280 196 0 c191 0 195 0 190 -20 -11 -39 -15
-55 -19 -80 -3 -14 -8 -43 -11 -65 -8 -49 7 -95 34 -102 24 -6 22 4 24 -158
l1 -130 375 0 c395 0 442 3 531 34 183 63 268 204 238 394 -22 138 -92 214
-244 268 l-50 18 39 16 c56 24 130 98 157 158 33 73 34 220 3 288 -32 69 -89
125 -158 158 -109 52 -167 59 -543 60 -189 1 -343 -2 -343 -6z m723 -98 c131
-27 206 -90 232 -192 24 -94 -1 -200 -61 -257 -30 -29 -93 -65 -125 -72 -11
-2 -29 -7 -41 -10 -13 -4 -97 -9 -188 -11 l-165 -5 -78 51 c-43 28 -105 77
-137 109 l-60 58 0 172 0 172 278 0 c202 0 295 -4 345 -15z m-793 -280 c0 -8
0 -17 1 -20 3 -16 31 -133 35 -147 5 -17 -9 -18 -190 -18 l-196 0 0 100 0 100
175 0 c149 0 175 -2 175 -15z m865 -372 c128 -27 212 -90 234 -179 46 -181
-42 -319 -229 -360 -19 -4 -185 -9 -367 -11 l-333 -4 0 166 0 165 66 65 c56
55 110 95 219 162 29 18 320 15 410 -4z"/>
</g>
</svg>
