<svg xmlns="http://www.w3.org/2000/svg" viewBox="0 0 100 100" width="200px" height="200px"><path fill="#f1bc19" d="M77 12A1 1 0 1 0 77 14A1 1 0 1 0 77 12Z"/><path fill="#e4e4f9" d="M50 13A37 37 0 1 0 50 87A37 37 0 1 0 50 13Z"/><path fill="#f1bc19" d="M83 11A4 4 0 1 0 83 19A4 4 0 1 0 83 11Z"/><path fill="#8889b9" d="M87 22A2 2 0 1 0 87 26A2 2 0 1 0 87 22Z"/><path fill="#fbcd59" d="M81 74A2 2 0 1 0 81 78 2 2 0 1 0 81 74zM15 59A4 4 0 1 0 15 67 4 4 0 1 0 15 59z"/><path fill="#8889b9" d="M25 85A2 2 0 1 0 25 89A2 2 0 1 0 25 85Z"/><path fill="#fff" d="M18.5 49A2.5 2.5 0 1 0 18.5 54 2.5 2.5 0 1 0 18.5 49zM79.5 32A1.5 1.5 0 1 0 79.5 35 1.5 1.5 0 1 0 79.5 32z"/><g><path fill="#f5ce85" d="M21.812,35.173l21.914,1.412c0,0,3.495-0.605,6.52,2.42c3.025,3.025,17.141,18.754,17.141,18.754 s0.874,2.689-0.739,3.966c-1.613,1.277-3.63,0.269-3.63,0.269s0.739,2.151-0.202,3.361s-2.42,1.68-3.63,1.479 c-1.21-0.202-0.269,2.42-1.008,3.227s-2.42,1.613-3.495,1.277c-1.076-0.336-0.202,1.748-1.008,2.487 c-0.807,0.739-2.353,1.479-3.428,0.605C49.171,73.555,32.433,54.33,32.433,54.33l-10.419,0.067L21.812,35.173z"/><path fill="#ffc49c" d="M76.664,34.971l-22.788,1.68l-1.949,0.672l-10.486,10.15l-0.269,1.68l3.899,2.622l3.092-0.067 l2.823-1.344l4.974-4.84l12.1,12.839c0,0,2.958-1.008,3.966-3.563C73.841,54.868,77,54.666,77,54.666L76.664,34.971z"/><path fill="#472b29" d="M46.519,52.607c-2.803,0-4.597-1.906-5.305-2.658l-0.179-0.188 c-0.901-0.902-0.299-2.292,0.199-2.971c0.024-0.032,0.05-0.063,0.08-0.091c0.377-0.362,9.25-8.891,10.058-9.608 c0.993-0.883,1.837-1.253,4.498-1.253c2.543,0,20.026-1.328,20.202-1.342c0.38-0.024,0.722,0.259,0.751,0.646 c0.03,0.385-0.259,0.722-0.645,0.751c-0.722,0.055-17.713,1.346-20.309,1.346c-2.558,0-2.959,0.357-3.568,0.898 c-0.758,0.674-9.247,8.83-9.97,9.525c-0.243,0.357-0.475,0.94-0.307,1.108l0.208,0.218c0.933,0.99,3.114,3.308,6.801,1.613 c4.202-1.933,6.375-5.928,6.397-5.968c0.13-0.244,0.396-0.385,0.667-0.369l5.019,0.358c0.386,0.027,0.676,0.362,0.648,0.748 c-0.028,0.386-0.358,0.67-0.748,0.648l-4.583-0.327c-0.697,1.14-2.945,4.4-6.815,6.181C48.479,52.399,47.444,52.607,46.519,52.607 z"/><path fill="#472b29" d="M51.492 75.305c-.129 0-.259-.008-.389-.023-.741-.086-1.396-.431-1.798-.945L32.518 55.075h-9.809c-.387 0-.7-.313-.7-.7s.313-.7.7-.7h10.127c.202 0 .395.088.528.24l17.021 19.53c.194.247.515.403.881.446.326.037.976.021 1.657-.525.884-.707.426-1.736.075-2.287-.184-.288-.133-.666.12-.896.252-.229.633-.242.902-.032 1.009.792 2.447.71 3.345-.188.898-.898.979-2.336.187-3.344-.219-.279-.195-.677.056-.928.251-.25.649-.272.927-.056 1.009.791 2.447.71 3.345-.188.898-.898.979-2.336.187-3.345-.219-.279-.195-.677.056-.928.251-.252.649-.273.927-.056 1.009.793 2.448.711 3.345-.187.987-.987.987-2.593 0-3.58L55.463 46.354c-.272-.274-.271-.717.003-.989.273-.273.717-.271.99.003l10.93 10.999c1.531 1.531 1.531 4.025-.001 5.559-.924.923-2.211 1.29-3.431 1.084.209 1.219-.161 2.507-1.084 3.431s-2.215 1.295-3.431 1.084c.209 1.219-.161 2.507-1.084 3.431-.951.949-2.289 1.313-3.538 1.064.107.949-.237 1.815-1.02 2.441C53.109 75.011 52.303 75.305 51.492 75.305zM49.955 39.929c-.173 0-.346-.063-.481-.191-1.282-1.212-3.01-2.318-6.942-2.229-3.845.072-19.754-1.462-20.43-1.528-.385-.037-.666-.38-.628-.765s.382-.672.765-.628c.165.016 16.485 1.622 20.261 1.521 3.596-.078 5.885.674 7.936 2.611.281.266.293.709.028.989C50.326 39.854 50.141 39.929 49.955 39.929z"/><path fill="#ffc49c" d="M47.154,68.514c-0.009,0-0.018,0.003-0.027,0.003c0.007-0.091,0.027-0.179,0.027-0.272 c0-1.93-1.565-3.495-3.495-3.495c-0.334,0-0.65,0.062-0.956,0.149c0.087-0.306,0.149-0.622,0.149-0.956 c0-1.93-1.565-3.495-3.495-3.495c-0.392,0-0.763,0.079-1.115,0.199c0.197-0.476,0.309-0.996,0.309-1.543 c0-2.228-1.806-4.033-4.033-4.033c-2.227,0-4.033,1.806-4.033,4.033c0,2.227,1.806,4.033,4.033,4.033 c0.547,0,1.067-0.111,1.543-0.309c-0.119,0.352-0.199,0.723-0.199,1.115c0,1.93,1.565,3.495,3.495,3.495 c0.334,0,0.65-0.062,0.956-0.149c-0.087,0.306-0.149,0.622-0.149,0.956c0,1.93,1.565,3.495,3.495,3.495 c0.093,0,0.18-0.02,0.272-0.027c0,0.009-0.003,0.018-0.003,0.027c0,1.782,1.445,3.227,3.227,3.227s3.227-1.445,3.227-3.227 S48.936,68.514,47.154,68.514z"/><path fill="#472b29" d="M47.154 75.667c-1.932 0-3.542-1.402-3.867-3.243-2.14-.188-3.824-1.991-3.824-4.179 0-.036.001-.072.002-.108-2.353.053-4.304-1.845-4.304-4.194 0-.05.001-.101.003-.151-.214.03-.43.045-.647.045-2.61 0-4.733-2.123-4.733-4.733s2.124-4.733 4.733-4.733 4.733 2.123 4.733 4.733c0 .218-.015.434-.045.647 2.382-.094 4.347 1.829 4.347 4.192 0 .036-.001.072-.002.108 2.246-.034 4.096 1.647 4.287 3.822 1.84.324 3.243 1.936 3.243 3.867C51.081 73.905 49.319 75.667 47.154 75.667zM44.631 70.959l-.011.879c.008 1.296 1.141 2.429 2.534 2.429s2.526-1.133 2.526-2.526c0-1.377-1.107-2.5-2.478-2.526l-.076.003h-.758l.077-.901c.008-1.612-1.246-2.866-2.787-2.866-.23 0-.473.039-.763.122l-1.213.349.347-1.214c.083-.292.122-.535.122-.764 0-1.541-1.254-2.795-2.795-2.795-.279 0-.57.053-.891.161l-1.303.44-.44 1.302c-.109.323-.162.614-.162.892 0 1.542 1.254 2.796 2.795 2.796.227 0 .47-.039.764-.122l1.21-.345-.346 1.21c-.083.291-.122.533-.122.764 0 1.541 1.254 2.795 2.795 2.795L44.631 70.959zM34.517 55.77c-1.838 0-3.333 1.495-3.333 3.333s1.495 3.333 3.333 3.333c.438 0 .867-.086 1.275-.255l1.274-.528.529-1.275c.169-.408.255-.837.255-1.274C37.85 57.265 36.355 55.77 34.517 55.77zM67.701 59.198c-.315 0-.602-.215-.68-.535-.091-.375.138-.752.513-.845l0 0c.12-.03 2.96-.77 3.895-3.575l.16-.479h4.807c.387 0 .7.313.7.7s-.313.7-.7.7h-3.818c-1.327 3.156-4.566 3.979-4.71 4.013C67.811 59.191 67.755 59.198 67.701 59.198zM63.399 62.962c-.175 0-.35-.065-.485-.196l-4.84-4.66c-.279-.268-.287-.711-.019-.989.27-.278.711-.287.99-.019l4.84 4.66c.279.268.287.711.019.989C63.766 62.89 63.583 62.962 63.399 62.962zM58.716 67.488c-.175 0-.35-.065-.485-.196l-4.84-4.66c-.279-.268-.287-.711-.019-.989.269-.278.711-.287.99-.019l4.84 4.66c.279.268.287.711.019.989C59.083 67.416 58.9 67.488 58.716 67.488zM54.239 71.969c-.197 0-.394-.083-.532-.244l-3.551-4.142c-.252-.294-.218-.735.076-.987.293-.252.736-.218.987.075l3.551 4.142c.252.294.218.735-.076.987C54.563 71.913 54.4 71.969 54.239 71.969z"/><g><path fill="#472b29" d="M72.271,55.183c-0.002,0-0.004,0-0.007,0c-0.387-0.004-0.697-0.32-0.693-0.707l0.06-6.226 c0.004-0.384,0.316-0.693,0.7-0.693c0.002,0,0.004,0,0.007,0c0.387,0.004,0.697,0.32,0.693,0.707l-0.06,6.226 C72.967,54.873,72.654,55.183,72.271,55.183z"/></g></g><g><path fill="#472b29" d="M49.387,62.783c-0.128,0-0.256-0.049-0.354-0.146l-1.377-1.377c-0.195-0.195-0.195-0.512,0-0.707 s0.512-0.195,0.707,0l1.377,1.377c0.195,0.195,0.195,0.512,0,0.707C49.643,62.734,49.515,62.783,49.387,62.783z"/></g><g><path fill="#472b29" d="M53.762,58.199c-0.128,0-0.256-0.049-0.354-0.146l-1.377-1.376c-0.195-0.195-0.195-0.512,0-0.707 s0.512-0.195,0.707,0l1.377,1.376c0.195,0.195,0.195,0.512,0,0.707C54.018,58.15,53.89,58.199,53.762,58.199z"/></g><g><path fill="#472b29" d="M58.137,53.616c-0.128,0-0.256-0.049-0.354-0.146l-1.377-1.377c-0.195-0.195-0.195-0.512,0-0.707 s0.512-0.195,0.707,0l1.377,1.377c0.195,0.195,0.195,0.512,0,0.707C58.393,53.567,58.265,53.616,58.137,53.616z"/></g></svg>