<svg xmlns="http://www.w3.org/2000/svg" viewBox="0 0 100 100" width="200px" height="200px"><path fill="#ee3e54" d="M13,27c-1.105,0-2,0.895-2,2s0.895,2,2,2s2-0.895,2-2S14.105,27,13,27z"/><path fill="#f1bc19" d="M77,12c-0.551,0-1,0.449-1,1s0.449,1,1,1s1-0.449,1-1S77.551,12,77,12z"/><path fill="#fce0a2" d="M50,13c-20.434,0-37,16.566-37,37s16.566,37,37,37s37-16.566,37-37S70.434,13,50,13z"/><path fill="#f1bc19" d="M83,11c-2.211,0-4,1.789-4,4s1.789,4,4,4s4-1.789,4-4S85.211,11,83,11z"/><path fill="#ee3e54" d="M87,22c-1.105,0-2,0.895-2,2s0.895,2,2,2s2-0.895,2-2S88.105,22,87,22z"/><path fill="#fbcd59" d="M81,74c-1.105,0-2,0.895-2,2s0.895,2,2,2s2-0.895,2-2S82.105,74,81,74z M15,59 c-2.211,0-4,1.789-4,4s1.789,4,4,4s4-1.789,4-4S17.211,59,15,59z"/><path fill="#ee3e54" d="M25,85c-1.105,0-2,0.895-2,2s0.895,2,2,2s2-0.895,2-2S26.105,85,25,85z"/><path fill="#fff" d="M18.5,48c-1.379,0-2.5,1.121-2.5,2.5s1.121,2.5,2.5,2.5s2.5-1.121,2.5-2.5S19.879,48,18.5,48z"/><path fill="#f1bc19" d="M21,66c-0.551,0-1,0.449-1,1s0.449,1,1,1s1-0.449,1-1S21.551,66,21,66z"/><path fill="#fff" d="M80,33c-0.551,0-1,0.449-1,1s0.449,1,1,1s1-0.449,1-1S80.551,33,80,33z"/><g><path fill="#f4989e" d="M62,78.044c-0.205,0-0.397-0.08-0.541-0.225L50.925,67.273c-0.3-0.3-0.3-0.788,0-1.088l2.002-2.004 c0.145-0.145,0.337-0.225,0.542-0.225s0.397,0.08,0.541,0.225l5.69,5.697V47.665c0-2.407-1.885-4.365-4.2-4.365 s-4.2,1.958-4.2,4.365v5.585c0,5.028-3.947,9.05-8.8,9.05s-8.8-4.022-8.8-8.965V32.123l-5.689,5.696 c-0.145,0.145-0.337,0.225-0.542,0.225c-0.204,0-0.396-0.08-0.542-0.225l-2.002-2.004c-0.3-0.3-0.3-0.788,0-1.088l10.533-10.547 c0.145-0.145,0.337-0.225,0.542-0.225s0.397,0.08,0.541,0.225l10.534,10.547c0.3,0.3,0.3,0.788,0,1.088l-2.002,2.004 c-0.145,0.145-0.337,0.225-0.542,0.225s-0.397-0.08-0.541-0.225l-5.69-5.697v21.212c0,2.407,1.885,4.365,4.2,4.365 s4.2-1.958,4.2-4.365v-5.67c0-4.943,3.947-8.965,8.8-8.965s8.8,4.021,8.8,8.965v22.212l5.689-5.696 c0.145-0.145,0.337-0.225,0.542-0.225s0.397,0.08,0.541,0.225l2.003,2.004c0.3,0.3,0.3,0.788,0,1.088L62.542,77.819 C62.397,77.964,62.205,78.044,62,78.044z"/><path fill="#472b29" d="M36,24.656c0.027,0,0.041,0.014,0.047,0.02L46.58,35.222c0.027,0.027,0.027,0.072,0,0.099 l-2.002,2.004c-0.006,0.006-0.02,0.02-0.047,0.02c-0.027,0-0.041-0.014-0.047-0.02l-4.494-4.5L37.6,30.432v3.383v19.521 c0,2.793,2.198,5.065,4.9,5.065s4.9-2.272,4.9-5.065V53.25v-4.5v-1.085c0-4.557,3.634-8.265,8.1-8.265s8.1,3.708,8.1,8.265v20.521 v3.383l2.391-2.394l4.494-4.5c0.006-0.006,0.02-0.02,0.047-0.02c0.027,0,0.041,0.014,0.047,0.02l2.002,2.004 c0.027,0.027,0.027,0.072,0,0.099L62.047,77.325c-0.006,0.006-0.02,0.02-0.047,0.02s-0.041-0.014-0.047-0.02L51.42,66.778 c-0.027-0.027-0.027-0.072,0-0.099l2.002-2.004c0.006-0.006,0.02-0.02,0.047-0.02c0.027,0,0.041,0.014,0.047,0.02l4.494,4.5 l2.391,2.394v-3.383V47.665c0-2.792-2.198-5.064-4.9-5.064s-4.9,2.272-4.9,5.064v1.085v4.5v0.085c0,4.557-3.634,8.265-8.1,8.265 s-8.1-3.708-8.1-8.265V33.814v-3.383l-2.391,2.394l-4.494,4.5c-0.006,0.006-0.02,0.02-0.047,0.02s-0.041-0.014-0.047-0.02 l-2.002-2.004c-0.027-0.027-0.027-0.072,0-0.099l10.533-10.546C35.959,24.669,35.973,24.656,36,24.656 M36,23.256 c-0.375,0-0.751,0.143-1.037,0.43L24.43,34.232c-0.573,0.574-0.573,1.504,0,2.078l2.002,2.004c0.286,0.287,0.662,0.43,1.037,0.43 s0.751-0.143,1.037-0.43l4.494-4.5v19.521C33,58.665,37.262,63,42.5,63s9.5-4.335,9.5-9.665V53.25v-4.5v-1.085 C52,45.644,53.57,44,55.5,44s3.5,1.644,3.5,3.665v20.521l-4.494-4.5c-0.286-0.287-0.662-0.43-1.037-0.43 c-0.375,0-0.751,0.143-1.037,0.43L50.43,65.69c-0.573,0.574-0.573,1.504,0,2.078l10.533,10.546c0.286,0.287,0.662,0.43,1.037,0.43 s0.751-0.143,1.037-0.43L73.57,67.768c0.573-0.574,0.573-1.504,0-2.078l-2.002-2.004c-0.286-0.287-0.662-0.43-1.037-0.43 c-0.375,0-0.751,0.143-1.037,0.43L65,68.186V47.665C65,42.335,60.738,38,55.5,38S46,42.335,46,47.665v1.085v4.5v0.085 C46,55.356,44.43,57,42.5,57S39,55.356,39,53.335V33.814l4.494,4.5c0.286,0.287,0.662,0.43,1.037,0.43 c0.375,0,0.751-0.143,1.037-0.43l2.002-2.004c0.573-0.574,0.573-1.504,0-2.078L37.037,23.686 C36.751,23.399,36.375,23.256,36,23.256L36,23.256z"/></g><g><path fill="#472b29" d="M29.5,50.375c-0.276,0-0.5-0.224-0.5-0.5V41c0-0.276,0.224-0.5,0.5-0.5S30,40.724,30,41v8.875 C30,50.151,29.776,50.375,29.5,50.375z"/></g><g><path fill="#472b29" d="M34.875,64.53c-0.103,0-0.205-0.031-0.294-0.095C31.087,61.9,29,57.812,29,53.5 c0-0.276,0.224-0.5,0.5-0.5s0.5,0.224,0.5,0.5c0,3.993,1.933,7.778,5.169,10.125c0.224,0.162,0.272,0.475,0.11,0.698 C35.182,64.458,35.029,64.53,34.875,64.53z"/></g><g><path fill="#472b29" d="M42.5,67c-1.512,0-2.997-0.248-4.413-0.738c-0.262-0.09-0.399-0.375-0.31-0.636 c0.09-0.26,0.375-0.4,0.636-0.309c2.623,0.907,5.551,0.907,8.174,0c0.262-0.09,0.546,0.049,0.636,0.309 c0.09,0.261-0.048,0.546-0.31,0.636C45.497,66.752,44.012,67,42.5,67z"/></g><g><path fill="#472b29" d="M68.5,60c-0.276,0-0.5-0.224-0.5-0.5V47c0-0.276,0.224-0.5,0.5-0.5S69,46.724,69,47v12.5 C69,59.776,68.776,60,68.5,60z"/></g><g><path fill="#472b29" d="M67.913,43.625c-0.213,0-0.41-0.137-0.478-0.351c-0.873-2.801-2.722-5.219-5.205-6.809 c-0.232-0.149-0.301-0.458-0.151-0.691c0.148-0.234,0.461-0.3,0.69-0.152c2.681,1.716,4.677,4.328,5.621,7.353 c0.082,0.264-0.065,0.544-0.329,0.626C68.013,43.618,67.962,43.625,67.913,43.625z"/></g><g><path fill="#472b29" d="M51.25,35.211c-0.207,0-0.401-0.13-0.473-0.337c-0.09-0.261,0.048-0.546,0.31-0.636 c2.789-0.965,5.899-0.979,8.696-0.044c0.263,0.088,0.403,0.371,0.316,0.633c-0.088,0.262-0.376,0.403-0.633,0.316 c-2.59-0.866-5.472-0.852-8.054,0.041C51.359,35.202,51.304,35.211,51.25,35.211z"/></g></svg>