<svg xmlns="http://www.w3.org/2000/svg" viewBox="0 0 100 100" width="200px" height="200px"><path fill="#78a0cf" d="M13 27A2 2 0 1 0 13 31A2 2 0 1 0 13 27Z"/><path fill="#f1bc19" d="M77 12A1 1 0 1 0 77 14A1 1 0 1 0 77 12Z"/><path fill="#cee1f4" d="M50 13A37 37 0 1 0 50 87A37 37 0 1 0 50 13Z"/><path fill="#f1bc19" d="M83 11A4 4 0 1 0 83 19A4 4 0 1 0 83 11Z"/><path fill="#78a0cf" d="M87 22A2 2 0 1 0 87 26A2 2 0 1 0 87 22Z"/><path fill="#fbcd59" d="M81 74A2 2 0 1 0 81 78 2 2 0 1 0 81 74zM15 59A4 4 0 1 0 15 67 4 4 0 1 0 15 59z"/><path fill="#78a0cf" d="M25 85A2 2 0 1 0 25 89A2 2 0 1 0 25 85Z"/><path fill="#fff" d="M18.5 51A2.5 2.5 0 1 0 18.5 56A2.5 2.5 0 1 0 18.5 51Z"/><path fill="#f1bc19" d="M21 66A1 1 0 1 0 21 68A1 1 0 1 0 21 66Z"/><path fill="#fff" d="M80 33A1 1 0 1 0 80 35A1 1 0 1 0 80 33Z"/><path fill="#472b29" d="M50.254,27.4c3.499,0,6.346,2.847,6.346,6.346v0.508c0,3.499-2.847,6.346-6.346,6.346h-0.508 c-3.499,0-6.346-2.847-6.346-6.346v-0.508c0-3.499,2.847-6.346,6.346-6.346H50.254 M50.254,26h-0.508 C45.486,26,42,29.486,42,33.746v0.508C42,38.514,45.486,42,49.746,42h0.508C54.514,42,58,38.514,58,34.254v-0.508 C58,29.486,54.514,26,50.254,26L50.254,26z"/><g><path fill="#be7841" d="M29,71.3c-1.82,0-3.3-1.48-3.3-3.3V37c0-1.819,1.48-3.3,3.3-3.3h42c1.82,0,3.3,1.48,3.3,3.3v31 c0,1.819-1.48,3.3-3.3,3.3H29z"/><path fill="#472b29" d="M71,34.4c1.434,0,2.6,1.166,2.6,2.6v31c0,1.434-1.166,2.6-2.6,2.6H29c-1.434,0-2.6-1.166-2.6-2.6 V37c0-1.434,1.166-2.6,2.6-2.6H71 M71,33H29c-2.209,0-4,1.791-4,4v31c0,2.209,1.791,4,4,4h42c2.209,0,4-1.791,4-4V37 C75,34.791,73.209,33,71,33L71,33z"/></g><g><path fill="#be7841" d="M33.875,51.3c-4.508,0-8.175-3.667-8.175-8.175V36c0-1.819,1.48-3.3,3.3-3.3h42 c1.82,0,3.3,1.48,3.3,3.3v7.125c0,4.508-3.667,8.175-8.175,8.175H33.875z"/><path fill="#472b29" d="M71,33.4c1.434,0,2.6,1.166,2.6,2.6v7.125c0,4.122-3.353,7.475-7.475,7.475h-32.25 c-4.122,0-7.475-3.353-7.475-7.475V36c0-1.434,1.166-2.6,2.6-2.6H71 M71,32H29c-2.209,0-4,1.791-4,4v7.125 C25,48.026,28.973,52,33.875,52h32.25C71.027,52,75,48.026,75,43.125V36C75,33.791,73.209,32,71,32L71,32z"/></g><g><path fill="#f1bc19" d="M36.098,54.3c-0.771,0-1.398-0.627-1.398-1.398v-3.803c0-0.771,0.627-1.398,1.398-1.398h1.804 c0.771,0,1.398,0.627,1.398,1.398v3.803c0,0.771-0.627,1.398-1.398,1.398H36.098z"/><path fill="#472b29" d="M37.902,48.4c0.385,0,0.698,0.313,0.698,0.698v3.804c0,0.385-0.313,0.698-0.698,0.698h-1.804 c-0.385,0-0.698-0.313-0.698-0.698v-3.804c0-0.385,0.313-0.698,0.698-0.698H37.902 M37.902,47h-1.804 C34.939,47,34,47.939,34,49.098v3.804C34,54.061,34.939,55,36.098,55h1.804C39.061,55,40,54.061,40,52.902v-3.804 C40,47.939,39.061,47,37.902,47L37.902,47z"/></g><g><path fill="#f1bc19" d="M62.098,54.3c-0.771,0-1.398-0.627-1.398-1.398v-3.803c0-0.771,0.627-1.398,1.398-1.398h1.804 c0.771,0,1.398,0.627,1.398,1.398v3.803c0,0.771-0.627,1.398-1.398,1.398H62.098z"/><path fill="#472b29" d="M63.902,48.4c0.385,0,0.698,0.313,0.698,0.698v3.804c0,0.385-0.313,0.698-0.698,0.698h-1.804 c-0.385,0-0.698-0.313-0.698-0.698v-3.804c0-0.385,0.313-0.698,0.698-0.698H63.902 M63.902,47h-1.804 C60.939,47,60,47.939,60,49.098v3.804C60,54.061,60.939,55,62.098,55h1.804C65.061,55,66,54.061,66,52.902v-3.804 C66,47.939,65.061,47,63.902,47L63.902,47z"/></g><g><path fill="#472b29" d="M66,36.938h-3c-0.276,0-0.5-0.224-0.5-0.5s0.224-0.5,0.5-0.5h3c0.276,0,0.5,0.224,0.5,0.5 S66.276,36.938,66,36.938z"/></g><g><path fill="#472b29" d="M59.941,36.938H29.313c-0.276,0-0.5-0.224-0.5-0.5s0.224-0.5,0.5-0.5h30.628 c0.276,0,0.5,0.224,0.5,0.5S60.217,36.938,59.941,36.938z"/></g><g><path fill="#472b29" d="M29.5,44c-0.276,0-0.5-0.224-0.5-0.5v-7c0-0.276,0.224-0.5,0.5-0.5s0.5,0.224,0.5,0.5v7 C30,43.776,29.776,44,29.5,44z"/></g><g><path fill="#472b29" d="M29.5,68.5c-0.276,0-0.5-0.224-0.5-0.5v-8.5c0-0.276,0.224-0.5,0.5-0.5s0.5,0.224,0.5,0.5V68 C30,68.276,29.776,68.5,29.5,68.5z"/></g><g><path fill="#472b29" d="M29.5,57.938c-0.276,0-0.5-0.224-0.5-0.5v-2.625c0-0.276,0.224-0.5,0.5-0.5s0.5,0.224,0.5,0.5v2.625 C30,57.714,29.776,57.938,29.5,57.938z"/></g><g><path fill="#472b29" d="M70.938,36.938h-2c-0.276,0-0.5-0.224-0.5-0.5s0.224-0.5,0.5-0.5h2c0.276,0,0.5,0.224,0.5,0.5 S71.214,36.938,70.938,36.938z"/></g></svg>