<svg xmlns="http://www.w3.org/2000/svg" viewBox="0 0 100 100" width="200px" height="200px"><circle cx="78" cy="15" r="1" fill="#f1bc19"/><circle cx="50" cy="51" r="38" fill="#f9dbd2"/><circle cx="84" cy="17" r="4" fill="#f1bc19"/><circle cx="14" cy="27" r="2" fill="#ee3e54"/><circle cx="78" cy="78" r="2" fill="#fbcd59"/><circle cx="17" cy="79" r="4" fill="#fbcd59"/><circle cx="24" cy="84" r="2" fill="#ee3e54"/><circle cx="66.483" cy="79.517" r="2.483" fill="#fff"/><circle cx="16" cy="49" r="1" fill="#fff"/><circle cx="86" cy="32" r="1" fill="#f1bc19"/><circle cx="80" cy="67" r="2" fill="#fff"/><g><circle cx="60.5" cy="40.5" r="14.8" fill="#f1bc19"/><path fill="#472b29" d="M60.5,26.4c7.775,0,14.1,6.325,14.1,14.1s-6.325,14.1-14.1,14.1s-14.1-6.325-14.1-14.1 S52.725,26.4,60.5,26.4 M60.5,25C51.94,25,45,31.939,45,40.5S51.94,56,60.5,56S76,49.061,76,40.5S69.06,25,60.5,25L60.5,25z"/><path fill="#472b29" d="M54.252,30.503c-0.084,0-0.166-0.043-0.213-0.12c-0.072-0.118-0.035-0.272,0.082-0.344 c1.916-1.171,4.121-1.79,6.379-1.79c0.138,0,0.25,0.112,0.25,0.25s-0.112,0.25-0.25,0.25c-2.165,0-4.281,0.594-6.117,1.716 C54.342,30.491,54.297,30.503,54.252,30.503z"/><path fill="#472b29" d="M48.679,38.675c-0.014,0-0.028-0.001-0.043-0.004c-0.136-0.024-0.227-0.153-0.203-0.289 c0.474-2.721,1.882-5.231,3.965-7.07c0.103-0.092,0.261-0.081,0.353,0.022c0.091,0.104,0.081,0.262-0.022,0.353 c-1.997,1.763-3.348,4.172-3.803,6.781C48.904,38.589,48.798,38.675,48.679,38.675z"/><path fill="#472b29" d="M60.5,52.75c-5.719,0-10.623-3.883-11.927-9.444c-0.032-0.134,0.052-0.269,0.187-0.3 c0.134-0.032,0.27,0.052,0.3,0.186c1.251,5.333,5.955,9.058,11.44,9.058c6.479,0,11.75-5.271,11.75-11.75 c0-5.607-3.987-10.456-9.48-11.531c-0.136-0.027-0.224-0.158-0.197-0.293c0.026-0.135,0.159-0.225,0.293-0.197 c5.728,1.121,9.885,6.177,9.885,12.022C72.75,47.255,67.255,52.75,60.5,52.75z"/><circle cx="41.5" cy="58.5" r="18.8" fill="#fbcd59"/><path fill="#472b29" d="M41.5,40.4c9.98,0,18.1,8.12,18.1,18.1s-8.12,18.1-18.1,18.1s-18.1-8.12-18.1-18.1 S31.52,40.4,41.5,40.4 M41.5,39C30.73,39,22,47.73,22,58.5S30.73,78,41.5,78S61,69.27,61,58.5S52.27,39,41.5,39L41.5,39z"/><path fill="#472b29" d="M41.5,74.75c-7.833,0-14.552-5.581-15.978-13.27c-0.024-0.136,0.064-0.266,0.2-0.291 c0.14-0.026,0.267,0.065,0.292,0.2C27.396,68.841,33.908,74.25,41.5,74.25c1.309,0,2.608-0.161,3.864-0.478 c0.131-0.033,0.27,0.047,0.304,0.181c0.034,0.134-0.047,0.27-0.181,0.304C44.191,74.584,42.85,74.75,41.5,74.75z"/><path fill="#472b29" d="M48.329,73.223c-0.094,0-0.184-0.053-0.226-0.143c-0.06-0.125-0.006-0.274,0.119-0.333 c4.683-2.213,7.979-6.575,8.816-11.667c0.022-0.136,0.152-0.228,0.288-0.206c0.136,0.022,0.229,0.151,0.206,0.287 c-0.865,5.254-4.266,9.755-9.098,12.038C48.401,73.216,48.365,73.223,48.329,73.223z"/><path fill="#472b29" d="M57.5,58.75c-0.138,0-0.25-0.112-0.25-0.25c0-8.685-7.065-15.75-15.75-15.75 c-0.138,0-0.25-0.112-0.25-0.25s0.112-0.25,0.25-0.25c8.96,0,16.25,7.29,16.25,16.25C57.75,58.638,57.638,58.75,57.5,58.75z"/><path fill="#472b29" d="M28.383,49.586c-0.05,0-0.1-0.015-0.144-0.045c-0.113-0.079-0.141-0.235-0.062-0.348 c2.55-3.644,6.522-6.109,10.899-6.764c0.146-0.022,0.264,0.074,0.284,0.21c0.021,0.137-0.073,0.264-0.21,0.284 c-4.242,0.634-8.093,3.024-10.563,6.556C28.539,49.549,28.462,49.586,28.383,49.586z"/><path fill="#472b29" d="M25.5,58.75c-0.138,0-0.25-0.112-0.25-0.25c0-2.526,0.563-4.946,1.675-7.193 c0.061-0.124,0.213-0.174,0.334-0.113c0.124,0.061,0.175,0.211,0.113,0.335c-1.076,2.177-1.622,4.523-1.622,6.971 C25.75,58.638,25.638,58.75,25.5,58.75z"/><g><path fill="#472b29" d="M36.662,63.157c0-0.709,0.376-1.064,1.129-1.064c0.782,0,1.172,0.304,1.172,0.912 c0,0.608,0.243,1.085,0.728,1.433c0.484,0.347,1.089,0.521,1.813,0.521c1.736,0,2.605-0.912,2.605-2.735v-0.413 c0-0.912-0.224-1.596-0.673-2.052c-0.449-0.456-1.086-0.684-1.911-0.684h-3.148c-0.651,0-0.976-0.295-0.976-0.887 c0-0.144,0.038-0.317,0.116-0.519l0.426-5.91C37.986,51.253,38.16,51,38.464,51h6.447c0.232,0,0.409,0.101,0.532,0.304 c0.123,0.203,0.184,0.442,0.184,0.716c0,0.275-0.061,0.514-0.184,0.716c-0.124,0.203-0.3,0.304-0.532,0.304h-5.015l-0.303,4.212 h1.932c1.49,0,2.678,0.366,3.56,1.096c0.883,0.731,1.325,1.885,1.325,3.463v0.413c0,1.636-0.445,2.841-1.335,3.615 C44.184,66.613,43.008,67,41.547,67c-1.506,0-2.696-0.372-3.572-1.118C37.099,65.137,36.662,64.229,36.662,63.157z"/></g><g><path fill="#472b29" d="M58.107,36.524c0-0.283,0.114-0.506,0.342-0.67l1.699-1.634c0.12-0.12,0.267-0.18,0.442-0.18 c0.195,0,0.373,0.052,0.53,0.155c0.158,0.104,0.237,0.243,0.237,0.417v10.816c0,0.174-0.087,0.313-0.261,0.417 C60.923,45.948,60.721,46,60.493,46c-0.24,0-0.445-0.052-0.613-0.155c-0.169-0.103-0.254-0.242-0.254-0.417v-9.084l-0.572,0.719 c-0.109,0.109-0.229,0.163-0.359,0.163c-0.163,0-0.303-0.074-0.417-0.221C58.164,36.859,58.107,36.698,58.107,36.524z"/></g></g></svg>