<svg height="511pt" viewBox="1 -16 511.999 511" width="511pt" xmlns="http://www.w3.org/2000/svg"><path d="m464.03125 105.523438h-79.273438v-22.71875c0-4.183594-3.390624-7.574219-7.574218-7.574219h-6.5625v-10.605469c0-35.359375-28.769532-64.125-64.128906-64.125h-100.984376c-35.359374 0-64.125 28.765625-64.125 64.125v10.605469h-6.566406c-4.183594 0-7.574218 3.390625-7.574218 7.574219v22.722656h-28.90625c-4.183594 0-7.574219 3.390625-7.574219 7.570312 0 4.183594 3.390625 7.574219 7.574219 7.574219h365.695312c18.097656 0 32.820312 14.726563 32.820312 32.824219v66.648437c0 15.652344-11.148437 29.195313-26.425781 32.195313l-182.808593 33.871094h-63.238282l-182.726562-33.859376c-15.355469-3.011718-26.503906-16.554687-26.503906-32.207031v-66.652343c0-18.097657 14.722656-32.820313 32.820312-32.820313h15.210938c4.183593 0 7.574218-3.390625 7.574218-7.574219s-3.390625-7.574218-7.574218-7.574218h-15.210938c-26.449219 0-47.96875 21.519531-47.96875 47.96875v66.652343c0 15.882813 7.859375 30.273438 20.195312 39.070313v173c0 26.449218 21.519532 47.96875 47.96875 47.96875h297.40625c4.183594 0 7.574219-3.390625 7.574219-7.574219s-3.390625-7.574219-7.574219-7.574219h-297.40625c-18.097656 0-32.820312-14.722656-32.820312-32.820312v-165.808594c1.140625.3125 2.296875.59375 3.472656.824219l177.292969 32.851562v79.539063c0 3.3125 2.152344 6.238281 5.316406 7.226562l32.316407 10.101563c.734374.226562 1.496093.34375 2.257812.34375s1.523438-.117188 2.257812-.34375l32.316407-10.101563c3.164062-.988281 5.316406-3.914062 5.316406-7.226562v-79.539063l177.371094-32.863281c1.148437-.226562 2.277343-.503906 3.394531-.804688v165.800782c0 18.101562-14.722656 32.820312-32.820312 32.820312h-42.835938c-4.183594 0-7.574219 3.390625-7.574219 7.574219s3.390625 7.574219 7.574219 7.574219h42.835938c26.449218 0 47.964843-21.519532 47.964843-47.96875v-172.988282c12.328125-8.789062 20.199219-23.191406 20.199219-39.082031v-66.652343c0-26.449219-21.519531-47.96875-47.96875-47.96875zm-307.503906-40.898438c0-27.007812 21.972656-48.976562 48.980468-48.976562h100.984376c27.007812 0 48.980468 21.96875 48.980468 48.976562v10.605469h-17.167968v-10.605469c0-17.539062-14.273438-31.808594-31.8125-31.808594h-16.789063c-4.183594 0-7.574219 3.390625-7.574219 7.570313 0 4.183593 3.390625 7.574219 7.574219 7.574219h16.789063c9.1875 0 16.664062 7.476562 16.664062 16.664062v10.605469h-6.566406c-4.183594 0-7.574219 3.390625-7.574219 7.574219v22.722656h-106.035156v-22.722656c0-4.183594-3.390625-7.574219-7.574219-7.574219h-6.5625v-10.605469c0-9.1875 7.476562-16.664062 16.664062-16.664062h48.976563c4.183594 0 7.574219-3.390626 7.574219-7.574219 0-4.179688-3.390625-7.570313-7.574219-7.570313h-48.976563c-17.539062 0-31.8125 14.269532-31.8125 31.808594v10.605469h-17.167968zm-14.136719 40.898438v-15.148438h45.445313v15.148438zm181.773437 0v-15.148438h45.445313v15.148438zm-92.90625 195.832031h49.484376v29.285156h-49.484376zm49.484376 72.695312-24.742188 7.734375-24.742188-7.734375v-28.261719h49.484376zm0 0"/></svg>