<?xml version="1.0" encoding="iso-8859-1"?>
<!-- Generator: Adobe Illustrator 17.1.0, SVG Export Plug-In . SVG Version: 6.00 Build 0)  -->
<!DOCTYPE svg PUBLIC "-//W3C//DTD SVG 1.1//EN" "http://www.w3.org/Graphics/SVG/1.1/DTD/svg11.dtd">
<svg version="1.1" id="Capa_1" xmlns="http://www.w3.org/2000/svg" xmlns:xlink="http://www.w3.org/1999/xlink" x="0px" y="0px"
	 viewBox="0 0 465 465" style="enable-background:new 0 0 465 465;" xml:space="preserve">
<g>
	<path d="M262.553,262.553c7.793-7.794,12.243-18.35,12.439-29.313l90.83-123.577c2.194-2.984,1.88-7.125-0.739-9.745
		c-2.621-2.619-6.763-2.935-9.745-0.739l-123.576,90.828c-11.075,0.188-21.46,4.589-29.314,12.441
		c-7.793,7.794-12.243,18.35-12.439,29.313l-90.83,123.577c-2.194,2.984-1.88,7.125,0.739,9.745
		c1.453,1.452,3.374,2.196,5.306,2.196c1.552,0,3.11-0.479,4.439-1.457l123.576-90.828
		C244.313,274.807,254.698,270.405,262.553,262.553z M231.182,259.969c-1.729-0.08-3.414,0.429-4.799,1.448l-86.037,63.237
		l63.237-86.037c1.02-1.386,1.53-3.08,1.448-4.799c-0.368-7.729,2.556-15.297,8.022-20.764c5.195-5.194,12.101-8.055,19.445-8.055
		c0.44,0,0.881,0.011,1.319,0.031c1.725,0.084,3.413-0.43,4.799-1.448l86.037-63.237l-63.237,86.037
		c-1.02,1.386-1.53,3.08-1.448,4.799c0.368,7.729-2.556,15.297-8.022,20.764C246.439,257.451,238.956,260.334,231.182,259.969z"/>
	<path d="M432.5,224.5h-35.276c-1.375-28.589-10.083-56.226-25.434-80.374c-2.222-3.496-6.858-4.527-10.353-2.306
		c-3.496,2.222-4.528,6.857-2.306,10.353c15.249,23.986,23.309,51.763,23.309,80.327c0,82.678-67.263,149.94-149.94,149.94
		c-28.564,0-56.342-8.061-80.329-23.31c-3.493-2.222-8.131-1.19-10.353,2.306c-2.223,3.495-1.19,8.131,2.306,10.353
		c24.29,15.442,52.109,24.165,80.876,25.462V432.5c0,4.143,3.357,7.5,7.5,7.5s7.5-3.357,7.5-7.5v-35.237
		c40.01-1.8,76.353-17.919,104.016-43.347l10.813,10.813c1.465,1.464,3.385,2.196,5.304,2.196s3.839-0.732,5.304-2.196
		c2.929-2.93,2.929-7.678,0-10.607l-10.84-10.84c25.143-27.686,41.013-63.93,42.685-103.782H432.5c4.143,0,7.5-3.357,7.5-7.5
		S436.643,224.5,432.5,224.5z"/>
	<path d="M232.5,224.5c-4.411,0-8,3.589-8,8s3.589,8,8,8s8-3.589,8-8S236.911,224.5,232.5,224.5z"/>
	<path d="M396.902,68.098C352.988,24.185,294.603,0,232.5,0S112.012,24.185,68.098,68.098C24.185,112.012,0,170.397,0,232.5
		s24.185,120.488,68.098,164.402C112.012,440.815,170.397,465,232.5,465s120.488-24.185,164.402-68.098
		C440.815,352.988,465,294.603,465,232.5S440.815,112.012,396.902,68.098z M232.5,450C112.57,450,15,352.43,15,232.5
		S112.57,15,232.5,15S450,112.57,450,232.5S352.43,450,232.5,450z"/>
	<path d="M103.56,323.176c3.496-2.222,4.528-6.857,2.306-10.353C90.619,288.838,82.56,261.063,82.56,232.5
		c0-82.678,67.263-149.94,149.94-149.94c28.564,0,56.342,8.061,80.329,23.31c3.491,2.221,8.13,1.19,10.353-2.306
		c2.223-3.495,1.19-8.131-2.306-10.353C296.586,77.769,268.767,69.046,240,67.749V32.5c0-4.143-3.357-7.5-7.5-7.5
		s-7.5,3.357-7.5,7.5v35.237c-39.655,1.784-75.712,17.628-103.282,42.667l-10.84-10.84c-2.93-2.928-7.678-2.928-10.607,0
		c-2.929,2.93-2.929,7.678,0,10.607l10.813,10.813C85.762,148.532,69.667,184.686,67.756,224.5H32.5c-4.143,0-7.5,3.357-7.5,7.5
		s3.357,7.5,7.5,7.5h35.223c1.217,28.943,9.954,56.941,25.484,81.37c1.429,2.248,3.855,3.478,6.336,3.478
		C100.919,324.348,102.313,323.969,103.56,323.176z"/>
</g>
<g>
</g>
<g>
</g>
<g>
</g>
<g>
</g>
<g>
</g>
<g>
</g>
<g>
</g>
<g>
</g>
<g>
</g>
<g>
</g>
<g>
</g>
<g>
</g>
<g>
</g>
<g>
</g>
<g>
</g>
</svg>
