<svg id="Layer_1" enable-background="new 0 0 511.937 511.937" height="512" viewBox="0 0 511.937 511.937" width="512" xmlns="http://www.w3.org/2000/svg"><path d="m504.362 323.321c4.142 0 7.5-3.358 7.5-7.5v-211.145c.646-4.485-2.98-8.567-7.417-8.567h-391.477c-9.674 0-9.674 15 0 15h369.92l-192.74 152.597c-20.125 15.933-48.234 15.933-68.359 0l-192.741-152.596h44.883c9.674 0 9.674-15 0-15h-66.439c-4.438 0-8.064 4.081-7.417 8.567v303.651c0 4.064 3.429 7.5 7.5 7.5h496.787c4.078 0 7.5-3.429 7.5-7.5v-54.359c0-9.674-15-9.674-15 0v38.872l-172.982-136.709 172.982-136.953v196.642c0 4.142 3.358 7.5 7.5 7.5zm-315.887-66.858-173.4 136.421v-273.705zm294.301 144.364h-453.539l171.329-134.791c16.679 13.205 33.034 24.635 55.402 24.635 22.59 0 39.001-11.651 55.826-24.971z"/></svg>