<?xml version="1.0" encoding="iso-8859-1"?>
<!-- Generator: Adobe Illustrator 19.0.0, SVG Export Plug-In . SVG Version: 6.00 Build 0)  -->
<svg version="1.1" id="Capa_1" xmlns="http://www.w3.org/2000/svg" xmlns:xlink="http://www.w3.org/1999/xlink" x="0px" y="0px"
	 viewBox="0 0 60 60" style="enable-background:new 0 0 60 60;" xml:space="preserve">
<path d="M30,0C13.458,0,0,13.458,0,30s13.458,30,30,30s30-13.458,30-30S46.542,0,30,0z M45.706,14.444L28.415,49.326
	c-0.17,0.345-0.521,0.556-0.896,0.556c-0.056,0-0.112-0.005-0.169-0.015c-0.436-0.074-0.771-0.427-0.824-0.865l-1.809-14.95
	L8.885,31.398c-0.434-0.072-0.769-0.419-0.826-0.854s0.175-0.857,0.574-1.041l35.761-16.412c0.383-0.177,0.84-0.091,1.135,0.213
	S45.895,14.064,45.706,14.444z"/>
<g>
</g>
<g>
</g>
<g>
</g>
<g>
</g>
<g>
</g>
<g>
</g>
<g>
</g>
<g>
</g>
<g>
</g>
<g>
</g>
<g>
</g>
<g>
</g>
<g>
</g>
<g>
</g>
<g>
</g>
</svg>
