<?xml version="1.0" encoding="utf-8"?>
<!-- Generator: Adobe Illustrator 16.0.0, SVG Export Plug-In . SVG Version: 6.00 Build 0)  -->
<!DOCTYPE svg PUBLIC "-//W3C//DTD SVG 1.1//EN" "http://www.w3.org/Graphics/SVG/1.1/DTD/svg11.dtd">
<svg version="1.1" id="Capa_1" xmlns="http://www.w3.org/2000/svg" xmlns:xlink="http://www.w3.org/1999/xlink" x="0px" y="0px"
	 width="720px" height="360px" viewBox="0 0 720 360" enable-background="new 0 0 720 360" xml:space="preserve">
<g>
	<path fill="#FFFFFF" d="M446.364,78.546l-214.566,98.472c-2.394,1.104-3.792,3.63-3.444,6.246c0.348,2.616,2.358,4.692,4.956,5.125
		l94.998,15.918l10.854,89.699c0.324,2.628,2.334,4.746,4.944,5.19c0.342,0.06,0.678,0.09,1.014,0.09
		c2.25,0,4.356-1.267,5.376-3.336L454.242,86.658c1.128-2.28,0.702-5.022-1.068-6.846C451.404,77.988,448.656,77.484,446.364,78.546
		z M348.66,272.628l-8.976-74.214c-0.324-2.641-2.346-4.758-4.968-5.196l-80.172-13.434L435.96,96.522L348.66,272.628z"/>
	<path fill="#FFFFFF" d="M360,0c-99.252,0-180,80.748-180,180s80.748,180,180,180s180-80.748,180-180S459.252,0,360,0z M360,348
		c-92.634,0-168-75.366-168-168S267.366,12,360,12s168,75.366,168,168S452.634,348,360,348z"/>
</g>
</svg>
