<?xml version="1.0" encoding="iso-8859-1"?>
<!-- Generator: Adobe Illustrator 19.0.0, SVG Export Plug-In . SVG Version: 6.00 Build 0)  -->
<svg version="1.1" id="Capa_1" xmlns="http://www.w3.org/2000/svg" xmlns:xlink="http://www.w3.org/1999/xlink" x="0px" y="0px"
	 viewBox="0 0 55 55" style="enable-background:new 0 0 55 55;" xml:space="preserve">
<path d="M51.376,45.291C46.716,40.66,44.354,35.179,44.354,29v-8.994c0.043-6.857-4.568-11.405-8.53-13.216
	c-1.117-0.51-2.294-0.888-3.494-1.178V5c0-2.757-2.243-5-5-5s-5,2.243-5,5v0.706c-1.079,0.283-2.139,0.629-3.146,1.093
	C14.805,8.817,10.369,13.681,10.329,20v9c0,6.388-2.256,11.869-6.705,16.291c-0.265,0.264-0.361,0.653-0.249,1.01
	c0.112,0.356,0.415,0.621,0.784,0.685l9.491,1.639c1.79,0.309,3.415,0.556,4.944,0.758C20.339,52.804,23.766,55,27.512,55
	c3.747,0,7.175-2.198,8.919-5.621c1.522-0.201,3.139-0.447,4.919-0.755l9.49-1.639c0.369-0.063,0.671-0.328,0.784-0.685
	C51.737,45.944,51.641,45.555,51.376,45.291z M24.329,5c0-1.654,1.346-3,3-3s3,1.346,3,3v0.193c-1.993-0.282-4.024-0.266-6,0.05V5z
	 M16.329,21c-0.002,0-0.004,0-0.006,0c-0.552-0.004-0.997-0.454-0.994-1.006c0.03-4.682,3.752-7.643,5.948-8.654
	c3.849-1.775,8.594-1.772,12.469-0.002c0.502,0.229,0.723,0.822,0.494,1.325c-0.23,0.502-0.823,0.724-1.326,0.493
	c-3.353-1.533-7.469-1.537-10.799,0c-1.767,0.814-4.762,3.173-4.785,6.85C17.326,20.557,16.879,21,16.329,21z M33.935,49.678
	C32.416,51.739,30.047,53,27.512,53c-2.534,0-4.902-1.26-6.421-3.32h0.001c0.396,0.041,0.78,0.073,1.164,0.106
	c0.183,0.016,0.371,0.035,0.552,0.05c0.14,0.011,0.275,0.018,0.414,0.028c2.906,0.212,5.582,0.212,8.486,0.005
	c0.167-0.012,0.33-0.021,0.499-0.034c0.218-0.017,0.444-0.04,0.665-0.059c0.339-0.03,0.676-0.058,1.025-0.094
	C33.909,49.68,33.922,49.679,33.935,49.678z"/>
<g>
</g>
<g>
</g>
<g>
</g>
<g>
</g>
<g>
</g>
<g>
</g>
<g>
</g>
<g>
</g>
<g>
</g>
<g>
</g>
<g>
</g>
<g>
</g>
<g>
</g>
<g>
</g>
<g>
</g>
</svg>
