<?xml version="1.0" encoding="utf-8"?>
<!-- Generator: Adobe Illustrator 22.0.1, SVG Export Plug-In . SVG Version: 6.00 Build 0)  -->
<svg version="1.1" id="Layer_2_1_" xmlns="http://www.w3.org/2000/svg" xmlns:xlink="http://www.w3.org/1999/xlink" x="0px" y="0px" viewBox="0 0 600 600" style="enable-background:new 0 0 600 600;" xml:space="preserve">

<g id="Layer_3">
</g>
<g>
	<path d="M432.5,324.7l-21.9-20.2c-0.1-0.1-0.2-0.1-0.3-0.2l-2.1-23.4l-2,0.2l2.1,23.2c-0.3,0.2-0.5,0.4-0.7,0.6
		l-15.6,22.9c-0.6,0.8-0.4,1.9,0.3,2.6l22.7,21.2c0.4,0.3,0.9,0.5,1.4,0.5c0.1,0,0.2,0,0.3,0c0.6-0.1,1.1-0.4,1.4-0.9l14.8-23.9
		C433.3,326.4,433.2,325.4,432.5,324.7z M409.5,309.1l8.7,8l-5.3,9.1l-9-8.8L409.5,309.1z M402.8,319l9.2,8.9l-5.8,10l-9.9-9.3
		L402.8,319z M415.9,347l-8.3-7.7l5.8-9.9l8.4,8.2L415.9,347z M422.8,335.8l-8.4-8.2l5.3-9.1l8.8,8.1L422.8,335.8z" style="fill:#2568EF;"/>
	<path d="M419,247.5l-136.5,1.4c0,0-7.3,4.1-3.2,24.4c4.1,20.4,15.9,16.8,22.1,12.2c0,0-17.5,72.8,2.6,89.2
		c16.4,13.4,37.3-11.3,44.6-21l-5.9-39.3c-0.1-0.7,0.4-1.3,1.1-1.4c0.7-0.1,1.3,0.4,1.4,1.1l9.7,58.9c0,0,12.6-7,35.6-10.1
		l-16.5-75.4c-0.2-0.7,0.2-1.3,0.9-1.5c0.7-0.2,1.3,0.2,1.5,0.9l2.7,10.7c3.6-6,10.5-18.1,11.8-23.6c0,0,8.2,13.4,18.6,9.8
		C420,280.3,421.3,276.2,419,247.5z M300.2,271.2c-0.1,0-1.4,0.3-3.2,0.3c-2.4,0-5.7-0.5-7.9-2.7c-2.3-2.4-3-6-1.9-10.9
		c0.1-0.5,0.7-0.9,1.2-0.8c0.5,0.1,0.9,0.7,0.8,1.2c-0.9,4.2-0.5,6.3,1.4,8.1c3.1,3.1,9.2,2.9,9.3,2.9c0.5-0.1,1.1,0.2,1.2,0.8
		C301.1,270.6,300.7,271.1,300.2,271.2z M403.8,271.4c-1,0.6-2.1,0.8-3.1,0.8c-2.3,0-4.2-1-4.3-1.1c-0.5-0.3-0.7-0.9-0.4-1.4
		c0.3-0.5,0.9-0.7,1.4-0.4c0,0,3.1,1.6,5.5,0.3c1.8-1,2.9-3.4,3.3-7.2c0.1-0.6,0.5-1,1.1-0.9c0.5,0.1,1,0.5,0.9,1.1
		C407.7,267.2,406.2,270.1,403.8,271.4z" style="fill:#FF564F;"/>
	<path d="M169.2,436.8v1.3c0,0,7.3,0.6,10.7,0.4l-0.2-3.2C179.8,435.3,172.3,436.5,169.2,436.8z" style="fill:#324A58;"/>
	<path d="M282.6,460.9c-4.4-1.3-9-1.7-13.8-1c-29,3.9-44.8,24.5-44.8,54.7c0,28,17.9,52,44.8,51.7
		c13.7-0.2,26.1-3.8,35.2-13.3C283.2,528,275.2,494.4,282.6,460.9z" style="fill:#FFE7E6;"/>
	<polygon points="264.9,467.2 274.6,470.9 276.1,451.2 	" style="fill:#2568EF;"/>
	<polygon points="256,544.9 264.9,553.5 249,569.7 	" style="fill:#2568EF;"/>
	<polygon points="236.5,512.9 232.5,527 214.6,518.2 	" style="fill:#2568EF;"/>
	<g>
		<path d="M190,446.5c-0.4-4-2.9-5.8-8.4-6c-9.5-0.3-21.6-3.2-21.7-3.2c-0.3,0-16.2-0.4-24.9-7.6
			c-1.6,3.1-4.1,13.7,4.8,19.7c0,0,0,0,0,0c10.3,4.9,26.2,6.7,28.4,6.9c2.5,0,5.7-0.1,9.2-0.5c-2.4-0.2-4.7-1-5.5-3.2
			c-0.5-1.5-0.5-2.8,0.2-4.1c1.2-2.3,4-3.1,4.9-3.4c2.2-0.6,6.2-0.9,6.4-0.9c0.2,0,0.4,0,0.6,0.2c0.2,0.2,2.1,1.8,2.3,7.7
			C188.5,450.8,190.3,448.7,190,446.5z" style="fill:#FF564F;"/>
		<path d="M177.4,447.1c-1.4,0.4-3.1,1.3-3.8,2.8c-0.4,0.9-0.4,1.9-0.1,3c1,3.3,7.9,2.2,10.4,1.6
			c0.2-0.1,0.4-0.2,0.7-0.3c0-5.1-1-7.2-1.5-7.9C182,446.3,179.1,446.6,177.4,447.1z" style="fill:#FF564F;"/>
		<path d="M185.6,410.2c-1-2.9-3.6-4.5-4.5-5c-2.6,1.6-4.9,4.4-5.5,7c-0.2,0.8-0.3,2.1,0.3,3c1.6,2.4,3.8,1.3,4.1,1.2
			c0.1-0.1,0.2-0.1,0.3-0.1c2.8-1.7,4.6-3.5,5.4-5.9C185.7,410.3,185.6,410.3,185.6,410.2z" style="fill:#FF564F;"/>
		<path d="M153.2,420c-5.7-2-12.9-5.2-19.5-10.4c-1.9,1-4.1,4.2-3.9,9c0.1,4.5,2.3,7.7,4.2,9.7
			c9.5,5.5,15.9,6.7,22.5,7.4c4,0.5,10.9,0.5,20.8-1.8c0.7-0.2,1.3-0.3,1.9-0.5c-1.4-0.4-2.6-1.3-3.1-3.1c-1.3-4.5,5.7-9.4,9.1-11
			c0.3-0.2,0.7-0.1,1,0.2c0.1,0.1,2.1,2.2,3.1,5.1c0.1-1,0.1-2-0.2-2.9c-1.3-4-5.3-4.8-6.2-4.9c-1.1,0.7-2.2,1.4-3.4,2.1
			C175.5,420.9,162,423.1,153.2,420z" style="fill:#FF564F;"/>
		<path d="M266.7,486.2c0,0-28.1-39.7-42.7-69c-14.5-29.3-51.9-62.4-68.7-73s-19.3-5.7-20.4-3.9s-4.9,10.1,14.1,26.2
			c19,16.1,22.9,17.2,22.9,17.2s-23.7-5.6-32.7,0.4c-9,6-14.3,14.3-3.1,25.5c0,0,0,0-0.1,0c6.2,4.7,12.7,7.9,17.8,9.3
			c8.3,2.4,17.6,1.2,23.3-1.4c-0.8-0.3-1.6-0.9-2.3-1.9c-0.8-1.1-1-2.6-0.5-4.3c0.8-3.1,3.5-6.4,6.6-8.1c0.2-0.1,0.5-0.1,0.7,0
			c0.1,0.1,3,2.3,4.7,5c0-0.4,1.9-3.7-1.5-6.2c-2.7-2-7.7-2-17.6-0.4c-13.1,2.3-15.3-1.1-18.4-4.6c-0.4-0.4-0.5-2.3,1.3-0.8
			c1.3,1.2,4.2,6.2,15.8,4.1c10.6-1.8,16.5-2.1,20.1,1c1.4,1.1,2.1,2.6,2.3,4.5c0.2,4.2-1.2,6.9-3.5,9c2,0.6,4.9,2.2,6.1,5.9
			c0.8,2.3,0.5,4.7-0.8,7c-1.8,3.2-5.4,5.7-10.3,7.2l0.2,3.2c0.6,0,1.2,0.1,1.8,0.1c2.4,0.1,9.6,0.3,10.3,7.8
			c0.5,4.7-4.9,8.5-8.9,9.7c-0.1,0-0.1,0-0.2,0l0.3,2.4c0,0,21.6,2.2,34.7,13.9c13.1,11.7,26,29.8,26,29.8s7.8,2.5,15.5-3.8
			C267.1,492,266.7,486.2,266.7,486.2z M184.4,392.4c-0.2,0.2-0.5,0.3-0.7,0.3c-0.2,0-0.5-0.1-0.7-0.3c0,0-3.4-3.1-10.4-7.3
			c-0.5-0.3-0.6-0.9-0.3-1.4s0.9-0.6,1.4-0.3c7.1,4.3,10.5,7.4,10.7,7.5C184.7,391.4,184.8,392,184.4,392.4z M212.2,429.6
			c0,0-0.1,0-0.1,0c-14.2-1.6-16.5-11.5-16.5-11.9c-0.1-0.5,0.2-1.1,0.8-1.2c0.5-0.1,1.1,0.2,1.2,0.8c0.1,0.4,2.1,8.9,14.8,10.3
			c0.5,0.1,0.9,0.6,0.9,1.1C213.1,429.3,212.7,429.6,212.2,429.6z" style="fill:#FF564F;"/>
		<path d="M188.1,427.7C188.1,427.7,188.1,427.7,188.1,427.7c-0.3-3-2.1-5.6-2.9-6.6c-3.4,1.9-8.5,6.1-7.6,9.2
			c0.9,3.2,5.1,2.2,5.2,2.1c0,0,0.1,0,0.1,0C185.2,431.1,187,429.6,188.1,427.7z" style="fill:#FF564F;"/>
		<path d="M166.1,457.5c-5.1-0.6-19.6-2.9-27.6-8c-1.6,3-2.8,10.5,9.9,17.9c2.7,1.6,5.2,2.9,7.4,4c-0.3-1-0.4-2.2,0-3.7
			c1-3.9,4.8-4.1,8.7-3.6c4.7,0.5,6.8,1.9,6.9,1.9c0.3,0.2,0.5,0.6,0.5,0.9c0,0.3-0.5,5.3-2.3,8.9c3.4,0.2,5.5-0.9,6.3-2.8
			C177.9,468.8,176.1,464.7,166.1,457.5z" style="fill:#FF564F;"/>
		<path d="M170.6,467.2c-0.9-0.4-3.4-1.4-6.5-1.8c-5.1-0.6-6.4,0.4-6.9,2.3c-1,3.9,1.8,5.1,1.9,5.2
			c0.1,0,0.1,0.1,0.2,0.1c3.1,1.3,6.8,2.2,9,2.6C169.9,473.1,170.4,469.3,170.6,467.2z" style="fill:#FF564F;"/>
	</g>
	<path d="M449.6,372.6c-52.7-24-127.6,5.5-154.2,64.1c-25,54.9-5.7,116.2,46.9,143.2l3.3-29l31.2-63.5l16.9,5L380,590.8
		c47,3.4,95.6-28.3,117.9-77.4C524.5,454.7,502.3,396.5,449.6,372.6z" style="fill:#FFE7E6;"/>
	<path d="M441.2,434.9c0,0-58.8,2.9-98.2,52.5s-49.1,97.2-49.1,97.2s16.9,13.6,60.3,9.7c0,0-1.5-52.5,19-89.5
		c0,0,3.2-7.1,5.8-6.2s0.4,3.3-1.2,7.7c-1.6,4.4-17.1,30.6-16.4,84.7c0,0,68.4,4,98.5-16c0,0,8.7-20,3.9-74.4
		C460.2,461,441.2,434.9,441.2,434.9z" style="fill:#2568EF;"/>
	<polygon points="453.6,382.8 468.3,393.3 478.8,365.7 	" style="fill:#2568EF;"/>
	<polygon points="487.3,437.6 491.5,459.6 526.3,440.2 	" style="fill:#2568EF;"/>
	<polygon points="480.5,511.6 490.8,492.4 516.5,509 	" style="fill:#2568EF;"/>
	<polygon points="402.1,418.5 396.9,398.4 426.2,382.2 	" style="fill:#2568EF;"/>
	<polygon points="323.2,432.5 337.9,418.5 298.7,404.7 	" style="fill:#2568EF;"/>
	<polygon points="304,504.8 304,526.1 278.3,528.3 	" style="fill:#2568EF;"/>
	<path d="M290.1,344l-7.1-30.2c-0.1-0.3-0.2-0.6-0.4-0.8l6.6-25.1l-1.9-0.5l-6.5,24.9c-0.4,0.1-0.8,0.3-1.1,0.6
		l-27.4,28.5c-0.5,0.5-0.7,1.2-0.5,1.9l8.9,32.1c0.2,0.7,0.8,1.3,1.5,1.4c0.1,0,0.3,0,0.4,0c0.6,0,1.1-0.3,1.5-0.7l25.7-30.4
		C290.1,345.3,290.3,344.6,290.1,344z M283,331.4l-11.8,11.7l-4-11.6l12.7-13.2L283,331.4z M265.7,333.1l4,11.6l-10.5,10.4
		l-3.3-11.8L265.7,333.1z M263.4,370.6l-3.7-13.3l10.6-10.5l3.8,11.2L263.4,370.6z M275.7,356.1l-3.7-10.9l11.6-11.5l2.4,10.3
		L275.7,356.1z" style="fill:#2568EF;"/>
	<g>
		<path d="M422.1,128.6c-0.2,0-0.3,0-0.5-0.1c-1.1-0.3-1.7-1.4-1.5-2.4l15.1-61l-22.4,21.3c-0.6,0.6-1.4,0.7-2.2,0.4
			c-0.7-0.3-1.2-1-1.2-1.8V53.1L387.7,83c-0.5,0.7-1.3,1-2.1,0.8c-0.8-0.2-1.4-0.9-1.5-1.7l-3.8-32.3l-23.9,59.4
			c-0.4,1-1.6,1.5-2.6,1.1c-1-0.4-1.5-1.6-1.1-2.6L379.5,41c0.3-0.8,1.2-1.4,2.1-1.2c0.9,0.1,1.6,0.8,1.7,1.7l4.1,35l22.3-30.8
			c0.5-0.7,1.4-1,2.2-0.7c0.8,0.3,1.4,1,1.4,1.9v33.4l24-22.8c0.6-0.6,1.6-0.7,2.4-0.3c0.8,0.4,1.1,1.3,0.9,2.2L424,127.1
			C423.8,128,423,128.6,422.1,128.6z" style="fill:#2568EF;"/>
	</g>
	<g>
		<path d="M451.6,49.8c-6.8,0-12.2-6-12.2-13.3s5.5-13.3,12.2-13.3s12.2,6,12.2,13.3S458.3,49.8,451.6,49.8z
			 M451.6,27.1c-4.5,0-8.2,4.2-8.2,9.3s3.7,9.3,8.2,9.3s8.2-4.2,8.2-9.3S456.1,27.1,451.6,27.1z" style="fill:#2568EF;"/>
	</g>
	<g>
		<path d="M418.4,35c-6.6,0-12-5.9-12-13c0-7.2,5.4-13,12-13s12,5.9,12,13C430.4,29.2,425,35,418.4,35z M418.4,13
			c-4.4,0-8,4.1-8,9c0,5,3.6,9,8,9s8-4.1,8-9C426.4,17,422.8,13,418.4,13z" style="fill:#2568EF;"/>
	</g>
	<g>
		<path d="M382.4,32.3c-0.1,0-0.2,0-0.4,0c-6.1-0.2-10.8-5.8-10.6-12.5c0.2-6.7,5.4-11.9,11.5-11.7
			c6.1,0.2,10.8,5.8,10.6,12.5c0,0,0,0,0,0C393.2,27.1,388.3,32.3,382.4,32.3z M382.5,12c-3.8,0-7,3.5-7.1,7.9
			c-0.2,4.5,2.9,8.2,6.8,8.4c0.1,0,0.1,0,0.2,0c3.8,0,7-3.5,7.1-7.9c0.2-4.5-2.9-8.2-6.8-8.4C382.7,12,382.6,12,382.5,12z
			 M391.5,20.5L391.5,20.5L391.5,20.5z" style="fill:#2568EF;"/>
	</g>
	<path d="M171.8,296.6c-0.4-0.7,0-1.6,0.7-2c0.7-0.4,1.6,0,2,0.7l22.7,47.8c5.1-4.8,9.3-10.5,12.6-16.8l-13.1-27.7
		c-0.4-0.7,0-1.6,0.7-2c0.7-0.4,1.6,0,2,0.7l12.1,25.5c12-25.9,11.6-62.4,6.1-102.4c-8.5-62.3-44.9-97.7-81.2-87.9l16.2,34.2
		c0.4,0.7,0,1.6-0.7,2c-0.2,0.1-0.4,0.1-0.6,0.1c-0.6,0-1.2-0.3-1.4-0.9l-16.4-34.6c-0.4,0.1-0.9,0.3-1.3,0.5
		c-4.7,1.7-9.1,4.5-13.3,8l18,37.8c0.4,0.7,0,1.6-0.7,2c-0.2,0.1-0.4,0.1-0.6,0.1c-0.6,0-1.2-0.3-1.4-0.9l-17.6-37
		c-23.9,23.2-36.4,75.6-27.1,128.6c11.1,63.6,42.7,97.6,82.4,84.9c9-2.9,16.6-7.1,22.8-12.4L171.8,296.6z" style="fill:#FFE7E6;"/>
	<path d="M142,297.1c-5.8-26.7-2.9-65.2-2.9-65.5c0.2-1.6-1-3.1-2.7-3.3c-1.6-0.2-3.1,1-3.3,2.7
		c-0.1,0.6,1.3,33.5-12.8,40c-0.8,0.4-1.1,0.2-1.2,0.1c-3-2.3-3.3-16.8-1.8-28.9c0.2-1.6-1-3.1-2.6-3.3c-1.6-0.2-3.1,1-3.3,2.6
		c-0.8,6.7-4.5,30.8,3.2,35.5c6.1,3.7,15.2-5,17.4-8.3c0.3,9.9,1.2,20.5,3.2,29.8c0.3,1.4,1.5,2.3,2.8,2.4c0.3,0,0.5,0,0.8-0.1
		C140.3,300.4,142.3,298.7,142,297.1z" style="fill:#FFFFFF;"/>
	<path d="M198.9,264.8c-6.8-25.1-5.4-60-5.3-60.4c0.1-1.7-1.1-3.1-2.8-3.2c-1.6-0.1-3.1,1.1-3.2,2.8
		c0,0.7-0.5,7.9-0.5,18c0,0,0,0,0,0c0,0,0,0.1,0,0.4c0,0,0,0.1,0,0.1c0,2.6-0.3,15.5-7.5,20c-0.4,0.3-0.6,0.3-0.6,0.3
		c-2.5-1-4.4-14.6-4-28c0-1.7-1.2-3-2.9-3.1c-1.7,0-3,1.3-3.1,2.9c-0.2,6.7-0.3,29.1,7,33.3c0.6,0.4,1.5,0.7,2.7,0.8
		c1.1,0.1,2.5-0.2,4-1.1c2.2-1.4,4-3.2,5.4-5.3c0.7,8.1,2,16.5,4.1,24.1c0.3,1.3,1.5,2.2,2.8,2.2c0.3,0,0.6,0,0.9-0.1
		C197.4,268.1,199.3,266.4,198.9,264.8z" style="fill:#FFFFFF;"/>
	<g>
		<path d="M157.8,289.1c-1.1-0.1-2.3-0.4-3.4-1c-5.4-2.9-10.4-11.8-11.5-23.3c-1.3-14.1,1.9-35.3,11-38.1
			c1.4-0.4,3.6-0.6,6.1,1c5.1,3.4,10,13.4,11.2,26.2c1,10.5,0.2,29.1-9.7,34.3C160.3,288.9,159.1,289.2,157.8,289.1z M155.8,232.5
			c-0.1,0-0.2,0-0.2,0c-1.1,0.3-3.2,2.8-4.8,10.1c-1.3,6.3-1.7,14.2-1,21.6c1,10.6,4.5,17.1,7.4,18.6c0.8,0.4,1.2,0.2,1.4,0.1
			c4.7-2.5,6.9-13.7,5.5-28.4l0,0c-1.1-11.7-4.6-19.9-7.6-21.8C156.2,232.5,156,232.5,155.8,232.5z" style="fill:#FFFFFF;"/>
	</g>
	<path d="M387.5,120.2c0,0,14.9-14.5,34.6-7.8c19.7,6.6,34,24.1,44.1,69.4s25.7,68.2,25.7,68.2s-11-6.6-18,1.4
		s-15.6,10-23.3,5.9c-7.7-4.1-18.8-7.1-27.4,0.9c-8.5,7.9-8.7,16.5-29.7,5.9c-21-10.6-28.6-0.9-32.1,0.9c-3.5,1.8-15,11.5-30.3-0.6
		c-15.3-12.1-24.6-8.2-31.1-5c-6.6,3.2-18.8,9.7-29.5-9.7s-38.3-9.4-38.3-9.4s22.7-59.2,49.5-89.8s57.7-57.4,90.1-43.6
		C371.7,106.8,381.2,110.1,387.5,120.2z" style="fill:#324A58;"/>
	<path d="M166,356.2c0,0,3-0.1,6.4-1.4l4.4,44.5c0,0-3.8-0.1-8,0.8L166,356.2z" style="fill:#324A58;"/>
	<path d="M171.1,457c0,0,9.3,0,12-1c0,0,1.6,11.1,3.5,19.6s4,19.9-4.5,21.2c-8.2,1.3-11-4.7-11-17.6
		C171.1,466.9,171.1,457,171.1,457z" style="fill:#324A58;"/>
	<g>
		<path d="M157.1,365.7c-8.8,0.4-17.2-2.7-25.1-7.2C110.1,345.9,94,315,86.7,273.2c-5.4-31-3.8-63,4.6-90
			c8.5-27.2,22.7-45.8,39.9-52.1c15.1-5.6,30.5-4,44.6,4.4c23.1,13.9,39.4,44.7,44.8,84.6c3.1,22.8,6.4,56.3-0.1,84.2
			c-6.7,28.5-22.2,49.9-47.4,59.2C167.7,365.4,162.3,365.5,157.1,365.7z M147.4,133.8c-4.7,0.2-9.4,1.1-14,2.9
			c-15.3,5.6-28.5,23.2-36.3,48.3c-8.1,26.1-9.7,57.1-4.4,87.2c6.9,39.4,22.3,68.6,42.3,80.1c11.1,6.4,23.3,7.2,36.1,2.5
			c23.1-8.6,37.4-25.6,43.7-51.9c6.4-26.9,3.1-59.7,0-82c-5.2-38-20.5-67.3-42-80.2C164.7,135.7,156.1,133.5,147.4,133.8z" style="fill:#324A58;"/>
	</g>
	<path d="M298.6,81.8c-2.4-11.4-12.8-18.9-23.4-16.8c-3.2,0.7-6.1,2.2-8.5,4.2c2.7-10.4-2.5-18.7-15.6-16.3
		c-11.7,2.1-13.5,16.3-13.5,16.3s-3.9-9.9-13.1-5.8c-9.2,4.2-6,14.1-6,14.1s-10.3-9.9-21.1,0c-10.7,9.9-4.6,25.4,6.8,25.4
		c7.2,0,11.1-3.5,11.1-3.5s-6,11.8,2.8,18.2c8.7,6.4,22.3,3.6,23.9-9.9c0,0,2.4,13.3,18.3,11.6c8.8-0.9,12.1-7.4,13.3-13.8
		c3.2,1.2,6.6,1.5,10.1,0.8C294.3,104.3,301,93.2,298.6,81.8z" style="fill:#FF9B19;"/>
	<path d="M460.2,291.8c0,0-3.3-10.9,4.5-13.9c7.8-3,9.3,7.5,9.3,7.5s4.8-15.3,14.6-12.7s8.8,17.6,8.8,17.6
		s4-7.8,12.3-5.8s8.6,9.3,8,14.3c-0.5,5-5.5,12.4-11.8,10c0,0,3.3,8.2-4.8,11.9c-8,3.8-14.8-2-15.8-4.3c0,0-1.8,10.7-9.8,11.4
		c-8,0.7-13.8-6.7-12.8-14.1c0,0-4.3,6.5-11.6,5.5s-11.5-8-11.6-17.5c-0.1-7.4,4.5-14,10.3-14.7
		C455.7,286.1,457.7,288.1,460.2,291.8z" style="fill:#FF9B19;"/>
	<path d="M53,368.4c0,0,0.6-18.5,16-18.2c15.4,0.3,10.2,16.7,10.2,16.7s6.3-8.2,16.5-5.8c10.2,2.5,13,13.3,4.9,18.9
		c-9.1,6.4-15.6,1.7-15.6,1.7s7.1,8.4-1.1,13.9c-8.2,5.5-17-5.1-17-5.1s-1.1,13.2-15.1,13.7c-14,0.5-11.5-11.8-11.5-11.8
		s-6.9,4.7-14,3.3c-7.1-1.4-6.9-14.3,6.7-16.9c0,0-6.8-14.5,5.9-18.3C48.9,357.5,53,368.4,53,368.4z" style="fill:#FF9B19;"/>
	<circle cx="292.2" cy="278.2" r="4" style="fill:#2568EF;"/>
	<circle cx="407.1" cy="277" r="3" style="fill:#2568EF;"/>
</g>
</svg>
